<svg xmlns="http://www.w3.org/2000/svg" width="722" height="22" fill="none" viewBox="0 0 722 22"><path stroke="#b3a66c" stroke-linecap="round" stroke-linejoin="round" stroke-miterlimit="10" d="M329.348 2.987a1.57 1.57 0 0 0-2.054-.848 2.126 2.126 0 0 0-1.147 2.779c.609 1.466 1.909 2.07 3.758 1.552l16.164-5.251c3.839-1.076 6.538.177 7.803 3.222a4.414 4.414 0 0 1-2.382 5.77 3.264 3.264 0 0 1-4.267-1.762 2.414 2.414 0 0 1 1.303-3.155 1.785 1.785 0 0 1 2.333.963M391.867 2.987a1.57 1.57 0 0 1 2.055-.848 2.126 2.126 0 0 1 1.147 2.779c-.609 1.466-1.909 2.07-3.758 1.552l-16.164-5.251c-3.839-1.076-6.538.177-7.803 3.222a4.414 4.414 0 0 0 2.383 5.77 3.264 3.264 0 0 0 4.267-1.762 2.414 2.414 0 0 0-1.303-3.155 1.785 1.785 0 0 0-2.333.963M8.356 10.635h341.649"/><path fill="#b3a66c" d="m2.5 8.135-2.5 2.5 2.5 2.501 2.5-2.5Z"/><path stroke="#b3a66c" stroke-linecap="round" stroke-linejoin="round" stroke-miterlimit="10" d="M713.04 10.635H371.392"/><path fill="#b3a66c" d="m718.894 8.136-2.5 2.5 2.5 2.501 2.5-2.5Z"/><path stroke="#b3a66c" stroke-linecap="round" stroke-linejoin="round" stroke-miterlimit="10" d="m360.699 5.776 3.339 4.927-3.339 4.926-3.34-4.926Z"/><path fill="#b3a66c" d="m360.697 0-1.568 1.568 1.568 1.569 1.568-1.569Z"/><path stroke="#b3a66c" stroke-linecap="round" stroke-linejoin="round" stroke-miterlimit="10" d="M391.868 18.475a1.57 1.57 0 0 0 2.054.848 2.126 2.126 0 0 0 1.147-2.779c-.609-1.466-1.909-2.07-3.758-1.552l-16.164 5.251c-3.839 1.076-6.538-.177-7.803-3.222a4.414 4.414 0 0 1 2.382-5.77 3.264 3.264 0 0 1 4.267 1.762 2.414 2.414 0 0 1-1.303 3.155 1.785 1.785 0 0 1-2.333-.963M329.349 18.475a1.57 1.57 0 0 1-2.055.848 2.126 2.126 0 0 1-1.147-2.779c.609-1.466 1.909-2.07 3.758-1.552l16.164 5.251c3.839 1.076 6.538-.177 7.803-3.222a4.414 4.414 0 0 0-2.383-5.77 3.264 3.264 0 0 0-4.267 1.762 2.414 2.414 0 0 0 1.303 3.155 1.785 1.785 0 0 0 2.333-.963"/><path fill="#b3a66c" d="m360.518 21.46 1.569-1.567-1.569-1.569-1.568 1.569Z"/></svg>