<svg xmlns="http://www.w3.org/2000/svg" width="388" height="522" fill="none" viewBox="0 0 388 522"><path stroke="#b3a66c" stroke-linecap="round" stroke-linejoin="round" stroke-miterlimit="10" stroke-width="1.72" d="M17.909 255.475V61.967M14.81 27.823c1.525 1.89 5.061 1.003 5.827-1.302.765-2.305-1.068-4.966-3.449-5.45-2.38-.486-4.895.921-6.129 3.015s-1.377 4.726-.715 7.064c1.625 5.735 15.606 17.156 10.816 26.906C16.204 68.14.464 64.396.868 54.18c.124-3.115 2.379-6 5.205-7.319s6.505-.803 8.612 1.497c2.107 2.298 2.187 6.287-.062 8.447s-6.526 1.72-8.04-1.006M14.288 8.722l-7.021-1.46 1.46 7.02 7.021 1.461ZM22.156 53.671v201.804"/><path stroke="#b3a66c" stroke-linecap="round" stroke-linejoin="round" stroke-miterlimit="10" stroke-width="1.72" d="m21.012 38.356.015.015a19.65 19.65 0 0 1 5.754 13.892v203.212l-8.872 10.769M61.973 17.907h124.703l13.928 8.872"/><path stroke="#b3a66c" stroke-linecap="round" stroke-linejoin="round" stroke-miterlimit="10" stroke-width="1.72" d="M27.829 14.807c1.89 1.526 1.002 5.063-1.303 5.83-2.305.765-4.965-1.068-5.45-3.449s.921-4.895 3.015-6.129 4.727-1.377 7.064-.715C36.89 11.969 48.312 25.95 58.061 21.16 68.146 16.204 64.4.464 54.186.868c-3.115.124-6 2.379-7.32 5.205-1.319 2.826-.803 6.505 1.497 8.612 2.298 2.107 6.287 2.187 8.447-.062s1.72-6.526-1.006-8.04M53.677 22.154H208.45"/><path stroke="#b3a66c" stroke-linecap="round" stroke-linejoin="round" stroke-miterlimit="10" stroke-width="1.72" d="m38.36 21.01.016.016a19.65 19.65 0 0 0 13.892 5.754h134.408M28.618 32.258a3.646 3.646 0 1 1 .001-7.291 3.646 3.646 0 0 1-.001 7.291M34.712 36.529A1.823 1.823 0 1 1 34.712 32.883 1.823 1.823 0 0 1 34.712 36.529M17.909 266.246v193.505M14.81 493.897c1.525-1.892 5.061-1.003 5.827 1.302.765 2.305-1.068 4.966-3.449 5.451s-4.895-.922-6.129-3.015-1.377-4.727-.715-7.065c1.625-5.735 15.606-17.156 10.816-26.906C16.204 453.58.464 457.324.868 467.54c.124 3.115 2.379 6 5.205 7.319s6.505.803 8.612-1.497c2.107-2.298 2.187-6.288-.062-8.447-2.248-2.16-6.526-1.72-8.04 1.006M14.288 512.999l-7.021 1.458 1.46-7.021 7.021-1.459ZM22.156 468.049V255.475"/><path stroke="#b3a66c" stroke-linecap="round" stroke-linejoin="round" stroke-miterlimit="10" stroke-width="1.72" d="m21.012 483.363.015-.015a19.65 19.65 0 0 0 5.754-13.892V266.244l-8.872-10.769M186.676 503.812H61.973M27.829 506.913c1.89-1.526 1.002-5.062-1.303-5.83s-4.965 1.069-5.45 3.449.921 4.896 3.015 6.129 4.727 1.378 7.064.715c5.735-1.625 17.157-15.606 26.906-10.815 10.085 4.955 6.339 20.696-3.875 20.292-3.115-.124-6-2.379-7.32-5.206-1.319-2.826-.803-6.505 1.497-8.612 2.298-2.107 6.287-2.186 8.447.062s1.72 6.526-1.006 8.04M53.677 499.566h161.498"/><path stroke="#b3a66c" stroke-linecap="round" stroke-linejoin="round" stroke-miterlimit="10" stroke-width="1.72" d="m38.36 500.708.016-.015a19.65 19.65 0 0 1 13.892-5.754h134.408l13.927 8.872M28.618 489.461A3.645 3.645 0 1 0 28.619 496.751 3.645 3.645 0 0 0 28.618 489.462M34.712 485.19a1.822 1.822 0 1 0-.002 3.645 1.822 1.822 0 0 0 .002-3.645M369.371 255.475V61.967M372.47 27.823c-1.525 1.89-5.062 1.003-5.827-1.302-.766-2.305 1.068-4.966 3.448-5.45 2.381-.486 4.896.921 6.129 3.015s1.378 4.726.716 7.064c-1.626 5.735-15.607 17.156-10.816 26.906 4.955 10.085 20.696 6.34 20.292-3.876-.124-3.115-2.381-6-5.205-7.319-2.826-1.319-6.506-.803-8.613 1.497-2.107 2.298-2.186 6.287.062 8.447s6.526 1.72 8.04-1.006M372.991 8.722l7.022-1.46-1.461 7.02-7.021 1.461ZM365.124 53.671v201.804"/><path stroke="#b3a66c" stroke-linecap="round" stroke-linejoin="round" stroke-miterlimit="10" stroke-width="1.72" d="m366.268 38.356-.016.015a19.65 19.65 0 0 0-5.754 13.892v203.212l8.873 10.769M325.307 17.907H200.604l-13.928 8.872"/><path stroke="#b3a66c" stroke-linecap="round" stroke-linejoin="round" stroke-miterlimit="10" stroke-width="1.72" d="M359.451 14.807c-1.891 1.526-1.003 5.063 1.302 5.83 2.305.765 4.966-1.068 5.451-3.449s-.922-4.895-3.015-6.129-4.727-1.377-7.065-.715c-5.735 1.625-17.156 15.606-26.906 10.816C319.134 16.204 322.88.464 333.094.868c3.115.124 5.999 2.379 7.319 5.205 1.319 2.826.803 6.505-1.497 8.612-2.298 2.107-6.287 2.187-8.447-.062-2.161-2.248-1.72-6.526 1.006-8.04M333.603 22.154H200.604"/><path stroke="#b3a66c" stroke-linecap="round" stroke-linejoin="round" stroke-miterlimit="10" stroke-width="1.72" d="m348.919 21.01-.016.016a19.64 19.64 0 0 1-13.891 5.754H200.604M358.662 32.258a3.645 3.645 0 1 0-.002-7.29 3.645 3.645 0 0 0 .002 7.29M352.567 36.529A1.823 1.823 0 1 0 352.5669615442128 32.883 1.823 1.823 0 0 0 352.567 36.529M369.371 266.246v193.505M372.47 493.897c-1.525-1.892-5.062-1.003-5.827 1.302-.766 2.305 1.068 4.966 3.448 5.451s4.896-.922 6.129-3.015 1.378-4.727.716-7.065c-1.626-5.735-15.607-17.156-10.816-26.906 4.955-10.084 20.696-6.34 20.292 3.876-.124 3.115-2.381 6-5.205 7.319-2.826 1.319-6.506.803-8.613-1.497-2.107-2.298-2.186-6.288.062-8.447 2.248-2.16 6.526-1.72 8.04 1.006M372.991 512.999l7.022 1.458-1.461-7.021-7.021-1.459ZM365.124 468.049V255.475"/><path stroke="#b3a66c" stroke-linecap="round" stroke-linejoin="round" stroke-miterlimit="10" stroke-width="1.72" d="m366.268 483.363-.016-.015a19.65 19.65 0 0 1-5.754-13.892V266.244l8.873-10.769M200.604 503.812h124.703M359.451 506.913c-1.891-1.526-1.003-5.062 1.302-5.83 2.305-.765 4.966 1.069 5.451 3.449s-.922 4.896-3.015 6.129-4.727 1.378-7.065.715c-5.735-1.625-17.156-15.606-26.906-10.815-10.084 4.955-6.338 20.696 3.876 20.292 3.115-.124 5.999-2.379 7.319-5.206 1.319-2.826.803-6.505-1.497-8.612-2.298-2.107-6.287-2.186-8.447.062-2.161 2.248-1.72 6.526 1.006 8.04M333.603 499.566H200.604"/><path stroke="#b3a66c" stroke-linecap="round" stroke-linejoin="round" stroke-miterlimit="10" stroke-width="1.72" d="m348.919 500.708-.016-.015a19.65 19.65 0 0 0-13.891-5.754H200.604l-13.928 8.872M358.662 489.461a3.645 3.645 0 1 1-.002 7.29 3.645 3.645 0 0 1 .002-7.29M352.567 485.19a1.822 1.822 0 1 1 .001 3.645 1.822 1.822 0 0 1-.001-3.645"/></svg>