<svg xmlns="http://www.w3.org/2000/svg" width="218" height="17" fill="none" viewBox="0 0 218 17"><path stroke="#b3a66c" stroke-linecap="round" stroke-linejoin="round" stroke-miterlimit="10" d="M81.828 2.986a1.57 1.57 0 0 0-2.054-.848 2.126 2.126 0 0 0-1.147 2.779c.61 1.466 1.91 2.07 3.758 1.552L98.55 1.218c3.839-1.076 6.538.177 7.803 3.222a4.414 4.414 0 0 1-2.382 5.77 3.263 3.263 0 0 1-4.267-1.762 2.414 2.414 0 0 1 1.303-3.155 1.785 1.785 0 0 1 2.333.963M144.347 2.986a1.57 1.57 0 0 1 2.055-.848 2.126 2.126 0 0 1 1.147 2.779c-.609 1.466-1.909 2.07-3.758 1.552l-16.164-5.251c-3.839-1.076-6.538.177-7.803 3.222a4.414 4.414 0 0 0 2.383 5.77 3.264 3.264 0 0 0 4.267-1.762 2.414 2.414 0 0 0-1.303-3.155 1.785 1.785 0 0 0-2.333.963M8.356 10.634h94.129"/><path fill="#b3a66c" d="m2.5 8.133-2.5 2.5 2.5 2.501 2.5-2.5Z"/><path stroke="#b3a66c" stroke-linecap="round" stroke-linejoin="round" stroke-miterlimit="10" d="M209.251 10.634h-85.379"/><path fill="#b3a66c" d="m215.105 8.135-2.501 2.5 2.501 2.5 2.5-2.5Z"/><path stroke="#b3a66c" stroke-linecap="round" stroke-linejoin="round" stroke-miterlimit="10" d="m113.179 5.776 3.339 4.927-3.339 4.926-3.34-4.926Z"/><path fill="#b3a66c" d="m113.178 0-1.569 1.568 1.569 1.569 1.568-1.569Z"/></svg>